<svg xmlns="http://www.w3.org/2000/svg" version="1.1" xmlns:xlink="http://www.w3.org/1999/xlink" viewBox="0 0 700 700" style="overflow: hidden; display: block;" width="700" height="700"><defs><linearGradient id="two-11" x1="350" y1="-350" x2="350" y2="350" spreadMethod="pad" gradientUnits="userSpaceOnUse"><stop offset="0%" stop-color="hsl(1.4, 100%, 67%)" stop-opacity="1"></stop><stop offset="100%" stop-color="hsl(167, 52%, 78%)" stop-opacity="1"></stop></linearGradient></defs><g id="two-0" transform="matrix(1 0 0 1 0 0)" opacity="1"><path transform="matrix(1 0 0 1 350 350)" id="two-469" d="M 130.38795 13.704325 C 123.80283 80.065609 298.781512 7.604492 324.750072 69.027758 C 329.282401 79.748047 315.746975 91.365344 308.042071 100.088936 C 299.446918 109.820478 288.820557 121.080367 275.960016 122.865315 C 218.954036 130.777324 141.183832 15.064819 111.63237 64.450979 C 90.565303 99.658089 227.918119 114.878045 203.70501 148.000353 C 178.819337 182.042693 121.363028 52.532537 93.168533 83.889324 C 64.590218 115.67298 149.751579 150.591513 169.652636 188.41834 C 183.827795 215.3617 225.753158 259.009316 200.153247 275.48731 C 164.817148 298.232234 146.867438 170.955758 108.193727 187.397033 C 91.415439 194.529952 121.070004 229.900265 108.032036 242.643925 C 101.096631 249.422776 87.040999 246.921107 78.649752 242.059047 C 55.272879 228.514011 62.655552 164.974101 36.528734 171.854181 C -8.631162 183.746319 71.021774 286.304044 32.931464 313.321952 C 23.619428 319.927089 7.765042 311.088781 0 302.719435 C -21.217318 279.850913 8.882832 213.919235 -22.158288 210.822027 C -54.620547 207.58302 -37.417118 281.351357 -63.863336 300.453371 C -73.312507 307.278476 -90.51258 312.576967 -98.948949 304.533551 C -122.212341 282.353731 -91.627157 239.493073 -92.321839 207.358244 C -92.607145 194.160462 -84.458975 172.378756 -96.76577 167.603228 C -124.868666 156.698182 -139.008758 242.1796 -165.491091 227.778944 C -180.85979 219.421699 -145.685307 187.883559 -157.858103 175.319184 C -167.600753 165.263129 -186.02919 179.481973 -200.017257 180.096346 C -215.276037 180.76653 -240.033495 192.872318 -246.286047 178.937286 C -258.997787 150.606687 -171.348707 134.738687 -185.508123 107.103164 C -195.597694 87.410925 -237.549819 128.80047 -252.352286 112.354476 C -259.606709 104.29459 -252.658166 88.870852 -246.356456 80.046064 C -229.043241 55.800983 -163.226822 65.102826 -167.744813 35.65526 C -170.64668 16.741337 -216.957397 41.194238 -224.461659 23.59187 C -228.054588 15.164118 -206.515693 8.542514 -209.826523 0 C -225.167138 -39.581442 -310.512985 0.565633 -333.593131 -35.062051 C -339.89704 -44.793086 -337.529581 -62.53705 -328.514236 -69.827857 C -291.886797 -99.448862 -233.147482 -58.642692 -186.076569 -60.459943 C -173.41554 -60.948743 -151.697097 -53.785138 -148.072311 -65.926041 C -140.002181 -92.956235 -192.45526 -102.308112 -212.162351 -122.491991 C -236.671896 -147.594512 -279.003127 -168.811194 -280.587738 -203.858925 C -281.132287 -215.903006 -271.011848 -229.677006 -259.692726 -233.828381 C -239.006292 -241.415288 -215.336383 -225.56346 -195.14873 -216.734622 C -170.099835 -205.779776 -151.489588 -179.855612 -125.205821 -172.331028 C -117.086308 -170.006553 -105.4745 -166.454768 -99.613641 -172.535887 C -87.069951 -185.550991 -107.708639 -210.426804 -101.19532 -227.288409 C -97.689542 -236.364126 -85.297326 -239.930608 -80.753484 -248.533666 C -70.315918 -268.29557 -89.223778 -313.423365 -66.919118 -314.829694 C -17.671668 -317.934791 -67.28437 -168.09696 -18.230074 -173.44756 C 34.175668 -179.163719 -52.715775 -332.439817 -0.000001 -332.151125 C 55.446445 -331.847479 -19.145808 -206.773844 17.345008 -165.026737 C 21.113468 -160.715454 28.515805 -160.334245 34.20948 -160.942951 C 42.03076 -161.779116 49.473771 -166.473274 55.666343 -171.323391 C 73.767408 -185.500419 82.942121 -209.699284 100.152219 -224.945568 C 114.03967 -237.248346 133.38986 -267.487014 147.434402 -255.363876 C 185.581995 -222.435173 43.565858 -145.697635 84.457547 -116.245842 C 129.087997 -84.101248 166.0027 -266.561901 206.690004 -229.552506 C 249.576715 -190.542518 61.630874 -133.500735 99.962887 -90.006989 C 130.270795 -55.617862 191.888534 -196.044731 220.026716 -159.858768 C 241.512579 -132.227748 133.021518 -116.753336 145.746256 -84.146641 C 150.409227 -72.197942 171.962872 -84.567205 184.563781 -82.17309 C 196.045425 -79.991631 214.637987 -82.027865 218.128291 -70.874179 C 221.704071 -59.447345 191.362814 -52.589274 196.474202 -41.761882 C 215.77438 -0.878546 315.722314 -76.681407 333.308811 -35.032168 C 339.303994 -20.834071 316.206857 -6.895336 302.423441 -0.000001 C 251.489785 25.480233 136.011709 -42.968887 130.38795 13.704325 Z " fill="rgb(99, 115, 138)" stroke="undefined" stroke-width="1" stroke-opacity="1" fill-opacity="1" visibility="visible" stroke-linecap="butt" stroke-linejoin="miter" stroke-miterlimit="4"></path></g></svg>